HIERARCHY
ROOT Hips
{
	OFFSET -0.20685154635 -22.8199434549 2.53627650759
	CHANNELS 6 Xposition Yposition Zposition Zrotation Yrotation Xrotation
	JOINT LeftHip
	{
		OFFSET 6.76402037876 -9.02003837746 -0.818842877786
		CHANNELS 3 Zrotation Yrotation Xrotation
		JOINT LeftKnee
		{
			OFFSET 3.27945440517 -36.192915826 -0.348151882256
			CHANNELS 3 Zrotation Yrotation Xrotation
			JOINT LeftFoot
			{
				OFFSET -1.31077992382 -38.053382743 -4.20097715881
				CHANNELS 3 Zrotation Yrotation Xrotation
				End LeftToe
				{
                                  OFFSET 2.47490940885 -5.38271057086 11.5925411367
				}
			}
		}
	}
	JOINT RightHip
	{
		OFFSET -6.56616895674 -8.92944550235 -0.56336854236
		CHANNELS 3 Zrotation Yrotation Xrotation
		JOINT RightKnee
		{
			OFFSET -3.68123426687 -36.9483511298 -0.72827800358
			CHANNELS 3 Zrotation Yrotation Xrotation
			JOINT RightFoot
			{
				OFFSET 1.54154162824 -38.1106092011 -4.03575181852
				CHANNELS 3 Zrotation Yrotation Xrotation
				End RightToe
				{
                                        OFFSET -2.27675847838 -4.64448979855 11.9645579952
				}
			}
		}
	}
	JOINT Waist
	{
		OFFSET -0.256257807693 10.7047900081 -2.38157365795
		CHANNELS 3 Zrotation Yrotation Xrotation
		JOINT Spine
		{
			OFFSET 0.563424356028 13.8221138911 0.232186993462
			CHANNELS 3 Zrotation Yrotation Xrotation
                        JOINT Chest
                        {
                            OFFSET 0.15148987643 5.34836809938 2.49522961031
                            CHANNELS 3 Zrotation Yrotation Xrotation
                            JOINT Neck
                            {
                                OFFSET -0.324732042825 21.3853559216 -4.48237091282
                                CHANNELS 3 Zrotation Yrotation Xrotation
                                End Head
                                {
                                        OFFSET -0.020530524741 26.8627858079 2.14167733897
                                }
                            }
                            JOINT LeftInnerShoulder
                            {
                                OFFSET 7.7069013548 12.0433266641 -3.42753498156
                                CHANNELS 3 Zrotation Yrotation Xrotation
                                JOINT LeftShoulder
                                {
                                        OFFSET 8.95186533583 2.87756928 -0.828909013665
                                        CHANNELS 3 Zrotation Yrotation Xrotation
                                        JOINT LeftElbow
                                        {
                                                OFFSET 24.9622175225 -1.08635704676 -2.54404596252
                                                CHANNELS 3 Zrotation Yrotation Xrotation
                                                End LeftWrist
                                                {
                                                        OFFSET 23.7238974045 0.770126513436 -0.130295148908
                                                }
                                        }
                                }
                            }
                            JOINT RightInnerShoulder
                            {
                                OFFSET -8.01122495579 11.7535832302 -3.89070751222
                                CHANNELS 3 Zrotation Yrotation Xrotation
                                JOINT RightShoulder
                                {
                                        OFFSET -9.3950270351 3.10197277934 -0.92218705338
                                        CHANNELS 3 Zrotation Yrotation Xrotation
                                        JOINT RightElbow
                                        {
                                                OFFSET -24.2912366089 -1.1809947006 -1.93981808606
                                                CHANNELS 3 Zrotation Yrotation Xrotation
                                                End RightWrist
                                                {
                                                        OFFSET -24.3191002178 0.661283629004 -0.554075970639
                                                }
                                        }
                                }
                            }
                        }
                }
            }
}
MOTION
Frames: 18
Frame Time: 0.0333333333333
229.80849 -207.58346 1.05869 62.17657 67.05007 -62.63376 24.84449 11.47963 -88.62861 -6.01037 8.14228 125.10829 -16.62306 3.22810 65.21363 -7.00742 1.81105 -90.93717 -4.27966 -13.86188 109.31774 17.22884 -14.02863 66.47281 -5.21154 4.28871 45.79418 -2.37885 -0.22364 -4.87802 -1.46168 1.29665 6.05881 -18.33320 4.05350 11.89434 18.42280 -2.31559 -14.25592 -38.48679 -39.94450 11.05620 109.26172 -46.56183 -108.97069 -26.29029 18.33276 -8.35510 30.25940 51.63348 2.94800 -97.77152 52.56600 -100.54741
230.34002 -207.17727 1.00665 67.49151 70.22704 -42.71772 32.39651 17.77681 -82.61810 -1.87601 10.99436 124.80899 -18.22607 5.97044 62.18866 -6.66697 3.09791 -81.86825 -1.40554 -12.79836 117.03353 20.64234 -10.83530 62.07450 -8.24387 8.60676 35.81285 -4.77998 2.48131 -1.04379 -2.27971 2.82915 6.24331 -10.79777 3.07833 13.98463 12.24129 -2.45502 -9.74363 -51.78657 -36.36062 20.98079 128.65060 -47.26457 -125.56395 -22.96594 17.22608 -3.92283 52.62688 37.51983 19.55225 -126.13047 58.35096 -123.23042
230.09546 -205.49456 0.98450 -22.08990 79.52215 -120.99069 29.59841 14.44078 -55.92783 -7.90789 8.74572 127.01971 -9.99080 -0.01873 23.03266 -8.53071 -4.69337 -80.08389 4.92581 -13.66560 95.55698 22.01662 0.70324 35.71476 -6.04629 1.67037 37.60195 -1.95434 2.21668 -2.80935 1.50599 0.10303 7.11863 1.31178 4.59111 17.29684 15.85887 -6.39557 -7.28942 -64.87429 -38.28651 20.47785 93.85646 -64.03473 -91.86213 -23.92974 14.17934 -6.89179 72.14240 35.30360 25.31563 -69.04431 69.35021 -63.99927
231.21083 -200.24615 0.91486 -74.99118 71.68529 -168.80486 26.69240 12.00639 -44.12179 -9.50786 8.33024 111.16424 -10.45929 0.47790 16.15168 -11.77285 -8.09688 -63.85164 7.93440 -8.96992 84.29099 20.21836 2.79892 31.74896 -3.18655 1.17049 38.85962 1.62171 1.93186 5.92712 3.15046 0.49113 4.75219 5.71688 0.97611 17.25996 13.19771 -18.84892 -6.10388 -54.81396 -40.63053 10.99362 41.70725 -60.10133 -42.54673 -19.61065 23.29074 -8.12770 66.15466 35.83569 17.78401 -39.88759 53.85458 -35.10413
237.52888 -198.86572 0.85525 -93.63482 65.01203 -178.57408 22.72034 12.19579 -54.64829 -7.69460 6.94021 98.54751 -9.53040 1.49573 19.63433 -13.21649 -11.25851 -56.92667 6.64051 -6.83885 74.44382 13.44644 4.00396 24.10999 0.74112 1.69204 43.31370 3.08373 1.12332 0.19103 4.44139 0.44801 4.47789 2.54117 -3.84345 14.03781 11.49313 -21.71868 -8.86273 -61.16781 -46.56724 15.94276 15.60849 -32.82941 -11.27042 -15.48509 25.47933 -9.73484 66.13391 44.89657 18.85154 -22.05586 30.33902 -13.42204
235.69811 -193.66967 0.76755 -111.98241 57.20025 171.17815 17.57512 8.83290 -55.60608 -5.39313 13.40204 91.07467 -1.97374 2.59738 1.64038 -18.39697 -16.46378 -50.47745 3.89936 -8.16402 60.09250 18.41954 1.75322 24.18013 5.99347 4.53205 46.76754 3.00711 5.38393 -1.30007 6.76755 5.27071 4.15873 1.94777 -16.17752 9.47512 1.41620 -22.69144 -5.69308 -64.05370 -39.10451 21.43919 11.31701 -38.52359 -6.05447 -9.92082 29.87971 -5.05512 43.17358 35.29951 -2.51393 -13.69376 8.05936 -25.65569
234.78931 -188.47255 0.66059 -126.31717 51.72518 168.77321 13.28731 9.19085 -53.77290 -2.11937 18.25572 94.02395 7.74515 1.46631 -4.54594 -22.49830 -23.04648 -46.33616 2.29069 -12.06428 45.74195 19.57005 -0.12350 28.21720 10.37583 4.21025 46.18364 1.31735 7.12375 -3.80238 6.86633 6.94557 3.31728 0.25583 -25.77523 10.50684 -3.55555 -19.59256 -6.13011 -70.39740 -33.19515 20.11280 4.39370 -24.32968 9.89892 -8.09514 28.29235 -1.08873 42.88282 28.43726 -0.42169 -9.94632 17.62280 -6.02739
238.05554 -177.18773 0.55806 -133.41152 45.64975 166.65856 15.30818 13.93512 -43.17896 -3.57929 18.53508 101.94180 7.25737 -0.22508 -10.66461 -25.88020 -25.17279 -43.37769 4.19500 -13.49716 43.04987 19.68611 2.60130 28.02031 10.32853 3.41193 42.61178 3.54205 6.61665 -0.05493 7.04476 6.19971 1.78997 5.59664 -26.38360 6.66976 -10.21418 -15.24957 -2.15193 -65.71925 -26.03180 14.76755 3.01045 -28.36013 11.75746 -0.61333 25.78458 0.51789 43.35546 27.59003 1.16072 -17.18569 33.10230 -10.35192
240.88572 -168.93910 0.49746 -143.17162 40.44786 161.39217 19.10648 15.43169 -36.09910 -5.40023 15.60384 100.74932 7.41411 2.17448 -22.44680 -30.76258 -24.75565 -42.36152 3.94566 -10.75428 52.65212 18.30451 2.24553 16.58909 8.94978 2.62069 43.28703 2.84990 6.99692 5.63589 6.28021 5.20469 0.59458 12.23341 -27.20818 2.59260 -22.04715 -12.69772 2.30212 -57.87920 -20.28634 8.20728 9.93006 -36.23232 -2.13554 9.92165 26.15643 3.07980 44.05105 24.51307 5.48386 -30.05525 55.88894 -26.85266
247.96044 -158.89846 0.43419 -145.34357 40.55317 164.00897 25.95594 16.92849 -41.06492 -4.41911 14.49489 112.16891 7.54935 4.37175 -24.94430 -29.56328 -25.34155 -44.05666 4.77687 -15.29082 60.61026 15.31333 -0.53272 16.49834 5.08633 4.55416 43.64417 4.52561 5.38397 5.29588 5.91358 2.42922 -0.66327 18.81860 -20.41129 0.83808 -30.87786 -10.02372 6.16233 -47.28023 -13.28532 6.87365 -5.80930 -25.78223 11.08733 21.15726 23.16816 4.96303 43.54906 22.63286 13.09501 -22.76375 63.06115 -12.92332
251.84319 -157.20646 0.48348 -148.64213 36.43692 164.09223 29.05592 20.35040 -50.07074 -3.41417 13.02263 129.98572 3.17606 3.29982 -19.58586 -30.90472 -27.77292 -48.88292 4.52304 -15.33540 74.78544 15.60661 2.00324 19.49879 4.11286 4.80921 47.80808 4.84607 4.75097 2.64128 6.06008 0.59910 -0.50947 20.84845 -19.64947 -2.71580 -28.98767 -6.53102 7.10770 -46.75795 -10.29871 5.76255 -7.01957 -22.95667 9.14720 17.52551 18.00096 1.95031 54.90622 16.56468 19.03393 -69.19645 76.37367 -58.02950
253.87560 -156.71025 0.51822 -153.40063 33.61257 163.66504 33.26467 26.53883 -47.71415 -4.57787 13.14629 131.14714 -0.92376 1.62384 -16.12750 -32.44275 -30.96007 -55.64339 4.23575 -15.15958 86.22837 14.66871 4.60701 17.25321 3.09833 2.29147 50.30474 3.73561 4.83012 2.67119 5.14500 -0.97877 -0.51230 19.38113 -18.66473 -4.24504 -26.36506 -4.12694 7.29035 -48.29711 -11.02709 4.12471 -6.73690 -20.12873 5.56282 14.82341 16.23016 0.47796 60.42742 18.88001 21.50036 -68.02447 76.32746 -60.02581
253.57985 -152.04529 0.55461 -157.27820 31.96223 160.48037 30.04650 23.70552 -53.53398 -5.42788 10.53029 141.11956 2.41011 0.31851 -15.95205 -31.96238 -28.79790 -61.50514 4.38386 -13.06503 97.00299 12.59900 7.55518 17.87450 4.03439 2.77936 56.39359 3.87075 4.97023 1.96099 4.87612 -0.84922 -0.61812 19.37534 -21.37091 -6.08011 -26.98022 -7.57646 7.48194 -46.66351 -11.34352 2.45349 -5.69166 -16.00587 2.02464 13.16612 16.26850 -1.17501 64.63980 12.90118 21.82363 -137.60207 57.61560 -127.71036
262.11717 -151.15039 0.59928 -161.15279 29.21400 159.71545 31.07170 22.07198 -49.98809 -9.85167 8.66965 139.33369 3.77248 1.66965 -20.23953 -32.61317 -27.01488 -64.86299 6.47151 -13.27568 108.95231 7.47008 9.73651 5.12263 3.11945 1.50265 56.34461 3.74305 4.58472 -0.10219 4.40223 -1.95646 -0.33000 20.19519 -20.87619 -6.42421 -29.47992 -7.57461 6.89840 -41.04026 -9.89185 0.80828 -4.81423 -8.70079 -2.83208 17.68082 14.13330 -0.78779 62.90291 8.08191 21.78773 -137.52654 59.19230 -128.95668
263.26201 -147.76060 0.64674 -164.77279 30.88727 161.80329 34.70149 23.78703 -39.84754 -13.70295 9.89652 138.62149 0.98604 0.24337 -19.95826 -28.16164 -27.00119 -72.73698 6.60600 -14.80576 113.65503 6.68475 8.91230 0.11906 1.04709 -1.82107 54.24527 1.19076 6.23672 -4.56705 3.06812 -2.67738 0.53625 18.71882 -19.03378 -6.87574 -27.76419 -1.54927 6.31691 -42.49315 -9.40406 -0.66841 -3.56389 -10.00924 -8.02115 17.92971 11.91074 -1.19947 64.95113 5.71213 24.05588 -46.20571 78.26105 -37.55379
262.19206 -138.82074 0.64386 -172.09203 29.98296 160.56268 34.12624 20.42199 -32.88712 -13.88978 8.26055 135.25501 6.24796 3.25216 -24.31662 -28.31467 -30.02044 -71.77751 3.64168 -19.05191 111.88466 4.90282 8.40758 -0.53717 1.31941 -2.01058 50.71812 -0.36598 6.66093 -4.24450 3.18183 -2.28470 0.03905 15.59780 -22.13328 -4.79812 -28.39111 -2.52914 4.90202 -44.64184 -13.23891 -0.38831 -0.16643 -9.09166 -6.12752 21.37304 12.33696 0.22488 64.63482 7.65554 22.38822 -19.92145 67.01767 -11.03756
258.77891 -129.39983 0.62001 -177.03584 28.79194 164.73244 33.68012 20.80805 -28.12127 -13.74499 8.61857 122.00468 5.81695 3.51929 -24.46739 -27.73266 -31.35715 -72.98504 1.68925 -20.76048 109.69238 4.67378 5.96301 -4.05230 2.26969 -4.09450 46.26461 -0.82921 7.35601 -6.73215 3.36104 -1.81561 -0.18778 13.38435 -22.87171 -5.81467 -24.98697 -1.09885 3.60980 -50.48022 -12.89990 3.22900 0.61424 -14.46667 4.72387 18.04919 12.21494 0.25764 62.97664 11.29169 22.19527 -1.75622 60.15909 10.96713
254.31665 -116.07975 0.58327 -179.85083 29.41233 171.81873 29.84393 19.52222 -24.13765 -10.28380 11.12797 112.03093 2.81000 3.38068 -16.03677 -27.26187 -27.96741 -75.40205 1.35041 -19.73810 110.76684 6.18522 5.13724 -1.48595 3.89100 -6.67094 40.03736 0.22817 8.13430 -8.26843 3.02788 -1.12369 -0.63441 11.96554 -20.23324 -11.81009 -24.09808 0.20628 2.47966 -55.83012 -10.99948 7.93693 -0.21328 -22.88696 6.24956 18.32634 11.87745 0.19528 59.83578 13.74022 22.23871 -3.86930 58.39424 3.71095
